<?xml version="1.0" encoding="utf-8"?>
<!-- Generator: Adobe Illustrator 19.1.0, SVG Export Plug-In . SVG Version: 6.00 Build 0)  -->
<svg version="1.1" id="Layer_1" xmlns="http://www.w3.org/2000/svg" xmlns:xlink="http://www.w3.org/1999/xlink" x="0px" y="0px"
	 viewBox="0 0 99.2 73.7" style="enable-background:new 0 0 99.2 73.7;" xml:space="preserve">
<style type="text/css">
	.st0{fill:#FFF200;}
	.st1{fill:none;stroke:#000000;stroke-width:0.5;stroke-miterlimit:10;}
	.st2{fill:#231F20;}
	.st3{fill:#FFFFFF;}
</style>
<path class="st0" d="M17.3,25.9l-8.7-6.2L3.5,29L9,54.3l13.8-3.1L17.3,25.9z M9,23.2c-0.5,0-1-0.4-1-1c0-0.5,0.4-1,1-1s1,0.4,1,1
	C10,22.7,9.6,23.2,9,23.2z"/>
<g>
	<path d="M7.4,30l6.2-1.4l0.1,0.5l-4.3,5.3l5.2-1.2l0.1,0.6l-6.2,1.4l-0.1-0.5l4.2-5.2l-5.1,1.1L7.4,30z"/>
	<path d="M8.9,36.8l6.2-1.4l0.9,4.1l-0.5,0.1l-0.8-3.5l-2.2,0.5l0.7,3l-0.5,0.1l-0.7-3l-2.4,0.5l0.8,3.6L9.8,41L8.9,36.8z"/>
	<path d="M16.1,40.1l0.1,0.6l-5,3.5l3.1,0.6l2.4-1.7l0.1,0.6l-2,1.4l2.4,0.4l0.1,0.6l-2.9-0.5L12,47.4l6,1l0.1,0.7l-6.8-1.2
		l-0.1-0.5l2.8-2l-3.4-0.6l-0.1-0.5L16.1,40.1z"/>
</g>
<path class="st1" d="M10.7,21.2c0.6-0.9,1.4-1.4,1.7-1.8c2-2-1.1-4.5,0.7-6.7s2-6.7,0.9-9.3c-1.2-2.6-0.6-0.1-3.5,0
	C9.9,3.5,9.1,3.6,8.5,4C7.3,4.7,6.7,6.2,6.8,7.6c0.1,1.4,0.7,2.8,1.2,4.1s1,2.7,0.8,4.1c-0.2,2-1.6,4.1-0.7,6c0.2,0.3,1.4,0.2,1.7,0
	"/>
<path class="st2" d="M55.9,47.5c0,7.3,5.7,13.4,13.6,15.7c2.1,0.6,4.3,0.9,6.6,0.9c11.2,0,20.2-7.4,20.2-16.6s-9-16.6-20.2-16.6
	S55.9,38.3,55.9,47.5z"/>
<g>
	<path class="st3" d="M61.1,44l0.4-0.5c0.3,0.3,0.7,0.6,1,0.7c0.4,0.2,0.7,0.3,1.2,0.3c0.5,0,0.9,0,1.2-0.2c0.3-0.2,0.5-0.5,0.5-0.8
		c0-0.2,0-0.3-0.1-0.4c-0.1-0.1-0.2-0.2-0.3-0.3c-0.2-0.1-0.3-0.2-0.6-0.3c-0.2-0.1-0.5-0.2-0.8-0.3c-0.3-0.1-0.6-0.3-0.9-0.4
		c-0.3-0.1-0.5-0.2-0.6-0.3c-0.2-0.1-0.3-0.3-0.4-0.4c-0.1-0.2-0.1-0.4-0.1-0.6c0-0.3,0.1-0.6,0.3-0.8c0.1-0.2,0.3-0.4,0.6-0.6
		c0.2-0.1,0.5-0.2,0.8-0.3c0.3-0.1,0.6-0.1,0.9-0.1c0.5,0,0.9,0.1,1.3,0.3c0.4,0.2,0.7,0.4,0.9,0.7L66,40.1
		c-0.2-0.3-0.5-0.5-0.8-0.6c-0.3-0.1-0.7-0.2-1-0.3c-0.2,0-0.4,0-0.6,0c-0.2,0-0.4,0.1-0.5,0.2c-0.1,0.1-0.3,0.2-0.4,0.3
		c-0.1,0.1-0.1,0.3-0.2,0.5c0,0.2,0,0.3,0.1,0.4c0,0.1,0.1,0.2,0.3,0.3c0.1,0.1,0.3,0.2,0.5,0.2c0.2,0.1,0.4,0.2,0.7,0.3
		c0.4,0.1,0.7,0.3,1,0.4c0.3,0.1,0.6,0.2,0.7,0.4c0.2,0.1,0.3,0.3,0.4,0.5c0.1,0.2,0.1,0.4,0.1,0.7c0,0.6-0.3,1-0.8,1.3
		c-0.5,0.3-1.1,0.4-1.8,0.4c-0.5,0-1-0.2-1.4-0.3C61.8,44.6,61.4,44.3,61.1,44z"/>
	<path class="st3" d="M67.3,39.6l0-0.7l0.9,0.1l0.2-2.1l0.8,0.1l-0.2,2.1l1.4,0.1l0,0.7L69,39.7L68.7,44c0,0.2,0.1,0.4,0.2,0.5
		c0.1,0.1,0.3,0.2,0.5,0.2c0.2,0,0.4,0,0.6-0.1c0.2-0.1,0.3-0.1,0.4-0.1l0.2,0.7c0,0-0.1,0-0.2,0.1c-0.1,0-0.2,0.1-0.3,0.1
		c-0.1,0-0.3,0.1-0.4,0.1c-0.2,0-0.3,0-0.5,0c-0.2,0-0.3,0-0.5-0.1c-0.2-0.1-0.3-0.1-0.4-0.3c-0.1-0.1-0.2-0.2-0.3-0.4
		c-0.1-0.2-0.1-0.3-0.1-0.5l0.3-4.5L67.3,39.6z"/>
	<path class="st3" d="M71.2,42.4c0-0.4,0.1-0.9,0.3-1.2c0.2-0.4,0.4-0.7,0.7-1c0.3-0.3,0.6-0.5,1-0.6c0.4-0.1,0.8-0.2,1.3-0.2
		c0.5,0,0.9,0.2,1.2,0.4c0.4,0.2,0.7,0.5,0.9,0.8c0.3,0.3,0.4,0.7,0.6,1.1c0.1,0.4,0.2,0.8,0.1,1.3c0,0.4-0.1,0.8-0.3,1.2
		c-0.2,0.4-0.4,0.7-0.7,1c-0.3,0.3-0.6,0.5-1,0.6c-0.4,0.1-0.8,0.2-1.3,0.2c-0.5,0-0.9-0.2-1.2-0.4c-0.4-0.2-0.7-0.5-0.9-0.8
		c-0.3-0.3-0.4-0.7-0.6-1.1C71.2,43.3,71.1,42.9,71.2,42.4z M72,42.5c0,0.4,0,0.7,0.1,1c0.1,0.3,0.2,0.6,0.4,0.8
		c0.2,0.2,0.4,0.4,0.7,0.6c0.3,0.2,0.6,0.2,0.9,0.3c0.3,0,0.6,0,0.9-0.1c0.3-0.1,0.5-0.3,0.8-0.5c0.2-0.2,0.4-0.5,0.6-0.8
		c0.1-0.3,0.2-0.6,0.3-1c0-0.3,0-0.7-0.1-1c-0.1-0.3-0.2-0.6-0.4-0.8s-0.4-0.4-0.7-0.6c-0.3-0.2-0.6-0.2-0.9-0.3
		c-0.3,0-0.6,0-0.9,0.1c-0.3,0.1-0.5,0.3-0.8,0.5c-0.2,0.2-0.4,0.5-0.6,0.8C72.1,41.8,72,42.1,72,42.5z"/>
	<path class="st3" d="M78.5,46.1l0.5-6.3l0.7,0.1l-0.1,1.4c0.1-0.2,0.3-0.4,0.5-0.6c0.2-0.2,0.4-0.3,0.7-0.4
		c0.2-0.1,0.5-0.2,0.8-0.3c0.3-0.1,0.5-0.1,0.8,0c0.4,0,0.6,0.1,0.9,0.3c0.2,0.1,0.4,0.3,0.5,0.6c0.1,0.2,0.2,0.5,0.2,0.9
		c0,0.3,0,0.7,0,1.1l-0.3,3.7L83,46.5l0.3-3.5c0.1-0.7,0-1.3-0.2-1.7c-0.2-0.4-0.5-0.6-1-0.6c-0.2,0-0.5,0-0.7,0.1
		c-0.2,0.1-0.5,0.2-0.7,0.3c-0.2,0.1-0.4,0.3-0.6,0.5c-0.2,0.2-0.3,0.4-0.4,0.7l-0.3,3.8L78.5,46.1z"/>
	<path class="st3" d="M85.3,43.5c0-0.4,0.1-0.9,0.3-1.2c0.2-0.4,0.4-0.7,0.7-1c0.3-0.3,0.7-0.5,1-0.6c0.4-0.1,0.8-0.2,1.3-0.2
		c0.5,0,0.9,0.2,1.2,0.4c0.4,0.2,0.7,0.5,0.9,0.8c0.3,0.3,0.4,0.7,0.6,1.1c0.1,0.4,0.2,0.8,0.1,1.3c0,0.1,0,0.1,0,0.2
		c0,0.1,0,0.1,0,0.1l-5.4-0.4c0,0.3,0.1,0.7,0.2,1c0.1,0.3,0.3,0.6,0.5,0.8c0.2,0.2,0.4,0.4,0.7,0.5c0.3,0.1,0.5,0.2,0.9,0.2
		c0.2,0,0.4,0,0.6,0c0.2,0,0.4-0.1,0.6-0.2c0.2-0.1,0.3-0.2,0.5-0.3c0.1-0.1,0.3-0.3,0.3-0.4l0.7,0.2c-0.1,0.2-0.3,0.4-0.5,0.6
		c-0.2,0.2-0.4,0.3-0.6,0.4s-0.5,0.2-0.8,0.3c-0.3,0.1-0.6,0.1-0.9,0c-0.5,0-0.9-0.2-1.2-0.4c-0.4-0.2-0.7-0.5-0.9-0.8
		c-0.3-0.3-0.5-0.7-0.6-1.1C85.3,44.4,85.3,43.9,85.3,43.5z M86.2,43.2l4.6,0.4c0-0.3-0.1-0.7-0.2-0.9c-0.1-0.3-0.3-0.5-0.5-0.8
		c-0.2-0.2-0.4-0.4-0.7-0.5c-0.3-0.1-0.6-0.2-0.9-0.2c-0.3,0-0.6,0-0.9,0.1c-0.3,0.1-0.5,0.2-0.8,0.4c-0.2,0.2-0.4,0.4-0.6,0.7
		C86.3,42.6,86.2,42.9,86.2,43.2z"/>
	<path class="st3" d="M62.1,53.2l0.4-0.5c0.3,0.3,0.7,0.6,1,0.7c0.4,0.2,0.7,0.3,1.2,0.3c0.5,0,0.9,0,1.2-0.2s0.5-0.5,0.5-0.8
		c0-0.2,0-0.3-0.1-0.5c-0.1-0.1-0.2-0.2-0.3-0.3c-0.2-0.1-0.3-0.2-0.6-0.3c-0.2-0.1-0.5-0.2-0.8-0.3c-0.3-0.1-0.7-0.3-0.9-0.4
		c-0.3-0.1-0.5-0.2-0.6-0.3c-0.2-0.1-0.3-0.3-0.4-0.4c-0.1-0.2-0.1-0.4-0.1-0.6c0-0.3,0.1-0.6,0.3-0.8c0.1-0.2,0.3-0.4,0.6-0.6
		c0.2-0.1,0.5-0.2,0.8-0.3c0.3-0.1,0.6-0.1,0.9-0.1c0.5,0,0.9,0.1,1.3,0.3c0.4,0.2,0.7,0.4,0.9,0.7l-0.4,0.5
		c-0.2-0.3-0.5-0.5-0.8-0.6c-0.3-0.1-0.7-0.2-1-0.3c-0.2,0-0.4,0-0.6,0c-0.2,0-0.4,0.1-0.5,0.2c-0.1,0.1-0.3,0.2-0.4,0.3
		c-0.1,0.1-0.1,0.3-0.2,0.5c0,0.2,0,0.3,0,0.4c0,0.1,0.1,0.2,0.3,0.3c0.1,0.1,0.3,0.2,0.5,0.2c0.2,0.1,0.4,0.2,0.7,0.3
		c0.4,0.1,0.7,0.3,1,0.4c0.3,0.1,0.6,0.2,0.7,0.4c0.2,0.1,0.3,0.3,0.4,0.5s0.1,0.4,0.1,0.7c0,0.6-0.3,1-0.8,1.3
		c-0.5,0.3-1.1,0.4-1.8,0.4c-0.5,0-1-0.2-1.4-0.3C62.8,53.8,62.4,53.5,62.1,53.2z"/>
	<path class="st3" d="M68.3,51.3c0-0.4,0.1-0.9,0.3-1.2c0.2-0.4,0.4-0.7,0.7-1c0.3-0.3,0.6-0.5,1-0.6c0.4-0.1,0.8-0.2,1.3-0.2
		c0.5,0,0.9,0.2,1.2,0.4c0.4,0.2,0.7,0.5,0.9,0.8c0.3,0.3,0.4,0.7,0.6,1.1c0.1,0.4,0.2,0.8,0.1,1.3c0,0.4-0.1,0.8-0.3,1.2
		c-0.2,0.4-0.4,0.7-0.7,1c-0.3,0.3-0.6,0.5-1,0.6c-0.4,0.1-0.8,0.2-1.3,0.2c-0.5,0-0.9-0.2-1.2-0.4c-0.4-0.2-0.7-0.5-0.9-0.8
		c-0.3-0.3-0.4-0.7-0.6-1.1C68.3,52.2,68.2,51.7,68.3,51.3z M69.1,51.4c0,0.4,0,0.7,0.1,1c0.1,0.3,0.2,0.6,0.4,0.8
		c0.2,0.2,0.4,0.4,0.7,0.6c0.3,0.2,0.6,0.2,0.9,0.3c0.3,0,0.6,0,0.9-0.1c0.3-0.1,0.5-0.3,0.8-0.5c0.2-0.2,0.4-0.5,0.6-0.8
		c0.1-0.3,0.2-0.6,0.3-1c0-0.3,0-0.7-0.1-1c-0.1-0.3-0.2-0.6-0.4-0.8s-0.4-0.4-0.7-0.6c-0.3-0.2-0.6-0.2-0.9-0.3
		c-0.3,0-0.6,0-0.9,0.1c-0.3,0.1-0.5,0.3-0.8,0.5c-0.2,0.2-0.4,0.5-0.6,0.8C69.2,50.7,69.1,51,69.1,51.4z"/>
	<path class="st3" d="M75.8,52.4l0.3-3.7l0.8,0.1l-0.3,3.5c-0.1,1.4,0.3,2.2,1.3,2.3c0.2,0,0.5,0,0.7-0.1c0.2-0.1,0.5-0.2,0.7-0.3
		c0.2-0.1,0.4-0.3,0.6-0.5c0.2-0.2,0.3-0.4,0.4-0.7l0.3-4l0.8,0.1L81,54.4c0,0.2,0.1,0.3,0.3,0.4l-0.1,0.7c-0.2,0-0.3,0-0.4,0
		c-0.2,0-0.3-0.1-0.5-0.2c-0.1-0.1-0.2-0.3-0.2-0.4l0-0.9c-0.3,0.5-0.7,0.8-1.2,1.1c-0.5,0.2-1,0.3-1.6,0.3c-0.7,0-1.1-0.3-1.4-0.8
		C75.8,54,75.7,53.3,75.8,52.4z"/>
	<path class="st3" d="M82.6,58.1l0.7-8.9l0.7,0.1l-0.1,1.2c0.3-0.4,0.7-0.7,1.1-0.9c0.4-0.2,0.9-0.3,1.4-0.3c0.4,0,0.8,0.2,1.2,0.4
		c0.4,0.2,0.6,0.5,0.9,0.8s0.4,0.7,0.5,1.1c0.1,0.4,0.2,0.8,0.1,1.2c0,0.4-0.1,0.9-0.3,1.2c-0.2,0.4-0.4,0.7-0.7,1
		c-0.3,0.3-0.6,0.5-1,0.6c-0.4,0.1-0.8,0.2-1.2,0.2c-0.5,0-1-0.2-1.4-0.5c-0.4-0.3-0.7-0.7-0.9-1.1l-0.3,3.9L82.6,58.1z M83.8,53.4
		c0.1,0.2,0.2,0.5,0.3,0.7c0.1,0.2,0.3,0.4,0.5,0.5c0.2,0.2,0.4,0.3,0.6,0.4c0.2,0.1,0.4,0.2,0.7,0.2c0.3,0,0.6,0,0.9-0.1
		c0.3-0.1,0.5-0.3,0.8-0.5c0.2-0.2,0.4-0.5,0.5-0.8c0.1-0.3,0.2-0.6,0.2-0.9c0-0.3,0-0.7-0.1-1c-0.1-0.3-0.2-0.6-0.4-0.8
		c-0.2-0.3-0.4-0.5-0.7-0.6c-0.3-0.2-0.6-0.3-0.9-0.3c-0.2,0-0.4,0-0.7,0.1c-0.2,0.1-0.5,0.2-0.7,0.3c-0.2,0.1-0.4,0.3-0.6,0.5
		c-0.2,0.2-0.3,0.4-0.3,0.6L83.8,53.4z"/>
</g>
<polygon class="st2" points="55.9,72.2 61.9,56.7 71.9,61.9 "/>
<path class="st2" d="M26.5,37.4c0,5.4,4.2,9.9,10.1,11.6c1.5,0.4,3.2,0.7,4.9,0.7c8.3,0,15-5.5,15-12.3s-6.7-12.3-15-12.3
	S26.5,30.6,26.5,37.4z"/>
<polygon class="st2" points="51.9,57.4 49.7,45.1 41.5,49.6 "/>
<g>
	<path class="st3" d="M32.3,42.9L31,35.7l0.7-0.1l0.6,3.2c0.1-0.4,0.4-0.8,0.7-1.1c0.3-0.3,0.7-0.5,1.1-0.6c0.3-0.1,0.6,0,0.8,0
		s0.4,0.2,0.6,0.4c0.2,0.2,0.3,0.4,0.4,0.7c0.1,0.3,0.2,0.6,0.3,0.9l0.6,3L36,42.2l-0.5-2.9c-0.1-0.6-0.3-1-0.5-1.3
		c-0.3-0.3-0.6-0.3-1-0.3c-0.2,0-0.4,0.1-0.6,0.2c-0.2,0.1-0.3,0.2-0.5,0.4c-0.1,0.2-0.3,0.3-0.3,0.5c-0.1,0.2-0.1,0.4-0.2,0.6
		l0.6,3.2L32.3,42.9z"/>
	<path class="st3" d="M37.2,39.3c-0.1-0.4-0.1-0.7,0-1.1c0.1-0.3,0.2-0.7,0.4-0.9c0.2-0.3,0.4-0.5,0.7-0.7c0.3-0.2,0.6-0.3,1-0.4
		c0.4-0.1,0.7-0.1,1.1,0c0.3,0.1,0.6,0.2,0.9,0.4c0.3,0.2,0.5,0.5,0.7,0.7c0.2,0.3,0.3,0.6,0.4,1c0,0,0,0.1,0,0.2c0,0.1,0,0.1,0,0.1
		L38,39.4c0.1,0.3,0.2,0.5,0.3,0.7c0.2,0.2,0.3,0.4,0.5,0.5c0.2,0.1,0.4,0.2,0.7,0.3c0.2,0.1,0.5,0.1,0.7,0c0.2,0,0.3-0.1,0.5-0.2
		c0.2-0.1,0.3-0.2,0.4-0.3c0.1-0.1,0.2-0.2,0.3-0.4c0.1-0.1,0.1-0.3,0.2-0.4l0.6,0.1c0,0.2-0.1,0.4-0.2,0.6
		c-0.1,0.2-0.3,0.3-0.4,0.5c-0.2,0.2-0.4,0.3-0.6,0.4c-0.2,0.1-0.5,0.2-0.7,0.2c-0.4,0.1-0.7,0.1-1.1,0c-0.3-0.1-0.7-0.2-0.9-0.4
		c-0.3-0.2-0.5-0.5-0.7-0.8C37.4,40,37.3,39.7,37.2,39.3z M37.9,38.9l3.8-0.7c-0.1-0.3-0.2-0.5-0.3-0.7c-0.2-0.2-0.3-0.4-0.5-0.5
		c-0.2-0.1-0.4-0.2-0.7-0.3c-0.2-0.1-0.5-0.1-0.7,0c-0.3,0-0.5,0.1-0.7,0.3c-0.2,0.1-0.4,0.3-0.5,0.5c-0.1,0.2-0.2,0.4-0.3,0.7
		C37.9,38.4,37.8,38.7,37.9,38.9z"/>
	<path class="st3" d="M43.7,39.8l-1.2-6.3l0.7-0.1l1.1,6.1c0,0.2,0.1,0.3,0.2,0.4c0.1,0.1,0.3,0.1,0.5,0.1c0.1,0,0.2,0,0.3-0.1
		c0.1,0,0.2-0.1,0.3-0.1l0.2,0.5c-0.1,0.1-0.3,0.1-0.4,0.2c-0.2,0.1-0.3,0.1-0.5,0.1c-0.3,0.1-0.6,0-0.8-0.1
		C43.9,40.4,43.8,40.1,43.7,39.8z"/>
	<path class="st3" d="M46.9,42.4l-1.3-7.3l0.6-0.1l0.2,1c0.2-0.4,0.4-0.7,0.7-0.9c0.3-0.3,0.7-0.4,1-0.5c0.4-0.1,0.7-0.1,1,0
		c0.3,0.1,0.6,0.2,0.9,0.5c0.3,0.2,0.5,0.5,0.7,0.8c0.2,0.3,0.3,0.6,0.4,1c0.1,0.4,0.1,0.7,0,1.1c-0.1,0.3-0.2,0.7-0.3,0.9
		c-0.2,0.3-0.4,0.5-0.6,0.7s-0.6,0.3-0.9,0.4c-0.4,0.1-0.8,0-1.2-0.1c-0.4-0.2-0.7-0.4-1-0.7l0.6,3.2L46.9,42.4z M46.8,38.4
		c0.1,0.2,0.2,0.3,0.4,0.5c0.2,0.1,0.3,0.3,0.5,0.3c0.2,0.1,0.4,0.1,0.6,0.2c0.2,0,0.4,0,0.6,0c0.3-0.1,0.5-0.2,0.7-0.3
		c0.2-0.2,0.4-0.4,0.5-0.6c0.1-0.2,0.2-0.5,0.2-0.7c0-0.3,0-0.5,0-0.8c-0.1-0.3-0.1-0.5-0.3-0.8c-0.1-0.2-0.3-0.4-0.5-0.6
		c-0.2-0.2-0.4-0.3-0.7-0.3c-0.3-0.1-0.5-0.1-0.8,0c-0.2,0-0.3,0.1-0.5,0.2c-0.2,0.1-0.3,0.2-0.5,0.4c-0.1,0.1-0.3,0.3-0.3,0.5
		c-0.1,0.2-0.1,0.4-0.1,0.5L46.8,38.4z"/>
</g>
</svg>
